<svg xmlns="http://www.w3.org/2000/svg" viewBox="0 0 256 256" width="100%" height="100%">
  <defs>
    <linearGradient id="sys-grad1" x1="0%" y1="0%" x2="100%" y2="100%">
      <stop offset="0%" stop-color="#F43F5E" />
      <stop offset="100%" stop-color="#E11D48" />
    </linearGradient>
    <linearGradient id="sys-grad2" x1="0%" y1="0%" x2="100%" y2="100%">
      <stop offset="0%" stop-color="#FDA4AF" />
      <stop offset="100%" stop-color="#F43F5E" />
    </linearGradient>
    <filter id="sys-shadow" x="-10%" y="-10%" width="120%" height="120%">
      <feDropShadow dx="0" dy="8" stdDeviation="12" flood-color="#000" flood-opacity="0.25" />
    </filter>
  </defs>
  
  <!-- True iOS/Figma G2 Squircle (R72, S1.0) -->
  <path d="M 128 0 c 52.4677 0 78.7015 0 97.2975 13.0211 a 72.0000 72.0000 0 0 1 17.6814 17.6814 c 13.0211 18.5960 13.0211 44.8298 13.0211 97.2975 L 256 128 c 0 52.4677 0 78.7015 -13.0211 97.2975 a 72.0000 72.0000 0 0 1 -17.6814 17.6814 c -18.5960 13.0211 -44.8298 13.0211 -97.2975 13.0211 L 128 256 c -52.4677 0 -78.7015 0 -97.2975 -13.0211 a 72.0000 72.0000 0 0 1 -17.6814 -17.6814 c -13.0211 -18.5960 -13.0211 -44.8298 -13.0211 -97.2975 L 0 128 c 0 -52.4677 0 -78.7015 13.0211 -97.2975 a 72.0000 72.0000 0 0 1 17.6814 -17.6814 c 18.5960 -13.0211 44.8298 -13.0211 97.2975 -13.0211 Z" fill="url(#sys-grad1)" filter="url(#sys-shadow)"/>
  
  <rect x="72" y="72" width="112" height="112" rx="16" fill="none" stroke="url(#sys-grad2)" stroke-width="16" />
  <rect x="104" y="104" width="48" height="48" rx="8" fill="url(#sys-grad2)" />
  
  <line x1="72" y1="128" x2="48" y2="128" stroke="url(#sys-grad2)" stroke-width="12" stroke-linecap="round" />
  <line x1="184" y1="128" x2="208" y2="128" stroke="url(#sys-grad2)" stroke-width="12" stroke-linecap="round" />
  <line x1="128" y1="72" x2="128" y2="48" stroke="url(#sys-grad2)" stroke-width="12" stroke-linecap="round" />
  <line x1="128" y1="184" x2="128" y2="208" stroke="url(#sys-grad2)" stroke-width="12" stroke-linecap="round" />
</svg>
