<svg width="256" height="256" viewBox="0 0 256 256" fill="none" xmlns="http://www.w3.org/2000/svg">
<g clip-path="url(#clip0_2_14)">
<path d="M128 0C180.468 0 206.701 0 225.298 13.0211C232.177 17.8385 238.161 23.8225 242.979 30.7025C256 49.2985 256 75.5323 256 128C256 180.468 256 206.701 242.979 225.298C238.161 232.177 232.177 238.161 225.298 242.979C206.701 256 180.468 256 128 256C75.5323 256 49.2985 256 30.7025 242.979C23.8225 238.161 17.8385 232.177 13.0211 225.298C0 206.701 0 180.468 0 128C0 75.5323 0 49.2985 13.0211 30.7025C17.8385 23.8225 23.8225 17.8385 30.7025 13.0211C49.2985 0 75.5323 0 128 0Z" fill="url(#paint0_linear_2_14)"/>
<path d="M173.174 69.0254H82.0203C75.3817 69.0254 70 73.4905 70 78.9985V192.027C70 197.535 75.3817 202 82.0203 202H173.174C179.813 202 185.195 197.535 185.195 192.027V78.9985C185.195 73.4905 179.813 69.0254 173.174 69.0254Z" fill="white" fill-opacity="0.92"/>
<path d="M158.65 54H96.5448C91.5659 54 87.5296 58.0363 87.5296 63.0152V75.0355C87.5296 80.0145 91.5659 84.0508 96.5448 84.0508H158.65C163.629 84.0508 167.665 80.0145 167.665 75.0355V63.0152C167.665 58.0363 163.629 54 158.65 54Z" fill="white" fill-opacity="0.55"/>
<path d="M158.149 114.102H97.0457C94.5562 114.102 92.5381 116.12 92.5381 118.609C92.5381 121.099 94.5562 123.117 97.0457 123.117H158.149C160.638 123.117 162.657 121.099 162.657 118.609C162.657 116.12 160.638 114.102 158.149 114.102Z" fill="#3B82F6" fill-opacity="0.35"/>
<path d="M143.124 134.135H97.0457C94.5562 134.135 92.5381 136.154 92.5381 138.643C92.5381 141.132 94.5562 143.151 97.0457 143.151H143.124C145.613 143.151 147.631 141.132 147.631 138.643C147.631 136.154 145.613 134.135 143.124 134.135Z" fill="#3B82F6" fill-opacity="0.25"/>
<path d="M153.14 154.169H97.0457C94.5562 154.169 92.5381 156.187 92.5381 158.677C92.5381 161.166 94.5562 163.184 97.0457 163.184H153.14C155.63 163.184 157.648 161.166 157.648 158.677C157.648 156.187 155.63 154.169 153.14 154.169Z" fill="#3B82F6" fill-opacity="0.2"/>
</g>
<defs>
<linearGradient id="paint0_linear_2_14" x1="28.4444" y1="18.963" x2="227.556" y2="237.037" gradientUnits="userSpaceOnUse">
<stop stop-color="#3B82F6"/>
<stop offset="1" stop-color="#06B6D4"/>
</linearGradient>
<clipPath id="clip0_2_14">
<rect width="256" height="256" fill="white"/>
</clipPath>
</defs>
</svg>
