<svg xmlns="http://www.w3.org/2000/svg" viewBox="0 0 256 256" width="100%" height="100%">
  <defs>
    <linearGradient id="clock-grad1" x1="0%" y1="0%" x2="100%" y2="100%">
      <stop offset="0%" stop-color="#4F46E5" />
      <stop offset="100%" stop-color="#7C3AED" />
    </linearGradient>
    <linearGradient id="clock-grad2" x1="100%" y1="0%" x2="0%" y2="100%">
      <stop offset="0%" stop-color="#60A5FA" />
      <stop offset="100%" stop-color="#A78BFA" />
    </linearGradient>
    <filter id="clock-shadow" x="-10%" y="-10%" width="120%" height="120%">
      <feDropShadow dx="0" dy="8" stdDeviation="12" flood-color="#000" flood-opacity="0.25" />
    </filter>
  </defs>
  
  <!-- True iOS/Figma G2 Squircle (R72, S1.0) -->
  <path d="M 128 0 c 52.4677 0 78.7015 0 97.2975 13.0211 a 72.0000 72.0000 0 0 1 17.6814 17.6814 c 13.0211 18.5960 13.0211 44.8298 13.0211 97.2975 L 256 128 c 0 52.4677 0 78.7015 -13.0211 97.2975 a 72.0000 72.0000 0 0 1 -17.6814 17.6814 c -18.5960 13.0211 -44.8298 13.0211 -97.2975 13.0211 L 128 256 c -52.4677 0 -78.7015 0 -97.2975 -13.0211 a 72.0000 72.0000 0 0 1 -17.6814 -17.6814 c -13.0211 -18.5960 -13.0211 -44.8298 -13.0211 -97.2975 L 0 128 c 0 -52.4677 0 -78.7015 13.0211 -97.2975 a 72.0000 72.0000 0 0 1 17.6814 -17.6814 c 18.5960 -13.0211 44.8298 -13.0211 97.2975 -13.0211 Z" fill="url(#clock-grad1)" filter="url(#clock-shadow)"/>
  
  <circle cx="128" cy="128" r="80" fill="none" stroke="url(#clock-grad2)" stroke-width="16" stroke-linecap="round"/>
  <circle cx="128" cy="128" r="6" fill="#fff"/>
  <!-- Thinner clock hands -->
  <path d="M128 72 L128 128 L168 152" fill="none" stroke="#fff" stroke-width="12" stroke-linecap="round" stroke-linejoin="round"/>
</svg>
