<?xml version="1.0" encoding="UTF-8"?>
<svg id="Layer_1" xmlns="http://www.w3.org/2000/svg" version="1.1" xmlns:xlink="http://www.w3.org/1999/xlink" viewBox="0 0 1080 1080">
  <!-- Generator: Adobe Illustrator 30.5.1, SVG Export Plug-In . SVG Version: 2.1.4 Build 3)  -->
  <defs>
    <style>
      .st0 {
        fill: url(#linear-gradient2);
      }

      .st1 {
        fill: url(#linear-gradient1);
        opacity: .32;
      }

      .st2 {
        fill: url(#linear-gradient);
      }
    </style>
    <linearGradient id="linear-gradient" x1="-420" y1="1080" x2="-419" y2="1079" gradientTransform="translate(453599.9957 1166400) scale(1080 -1080)" gradientUnits="userSpaceOnUse">
      <stop offset="0" stop-color="#ff4063"/>
      <stop offset="1" stop-color="#ff8d3b"/>
    </linearGradient>
    <linearGradient id="linear-gradient1" x1="257.37" y1="905.18" x2="838.66" y2="230.26" gradientUnits="userSpaceOnUse">
      <stop offset="0" stop-color="#fff" stop-opacity=".4"/>
      <stop offset="1" stop-color="#ffe5e9"/>
    </linearGradient>
    <linearGradient id="linear-gradient2" x1="291.49" y1="864.82" x2="806.45" y2="266.91" xlink:href="#linear-gradient1"/>
  </defs>
  <path class="st2" d="M540,0C761.35,0,872.02,0,950.47,54.93c29.02,20.32,54.27,45.57,74.59,74.59,54.93,78.45,54.93,189.13,54.93,410.47h0c0,221.35,0,332.02-54.93,410.47-20.32,29.02-45.57,54.27-74.59,74.59-78.45,54.93-189.13,54.93-410.47,54.93h0c-221.35,0-332.02,0-410.47-54.93-29.02-20.32-54.27-45.57-74.59-74.59C0,872.02,0,761.35,0,540h0C0,318.65,0,207.98,54.93,129.53c20.32-29.02,45.57-54.27,74.59-74.59C207.98,0,318.65,0,540,0Z"/>
  <path class="st1" d="M765.82,182.07c-9.45,0-18.83,1.51-27.87,4.47l-353.84,115.94c-36.79,12.03-61.5,46.13-61.5,84.85v158.4c-82.86,15.24-145.76,88.2-145.35,175.5.46,97.22,79.97,176.5,177.19,176.7,77.03.16,142.82-48.99,167.51-117.59,2.1-5.82,3.54-11.86,4.47-17.98l6.17-40.72c32.2,45.35,85.14,74.99,144.87,74.99s110.56-27.93,143.57-71.05c19.54-25.52,30-56.84,30.32-88.98l3.67-365.21c0-49.25-40.02-89.33-89.22-89.33Z"/>
  <path class="st0" d="M805.04,271.39c0-26.74-26.12-45.67-51.52-37.34l-353.86,115.95c-16.14,5.28-27.05,20.35-27.05,37.33v206.71c-5.82-.81-11.75-1.24-17.79-1.24-70.45,0-127.56,57.12-127.56,127.57s57.18,127.56,127.56,127.56,127.57-57.11,127.57-127.56h.22v-281.8l212.43-69.61v123.75c-5.74-.79-11.6-1.21-17.56-1.21-70.46,0-127.57,57.11-127.57,127.56s57.18,127.57,127.57,127.57,127.56-57.11,127.56-127.57c0-1.45-.03-2.9-.08-4.34h.08v-343.33Z"/>
</svg>