<svg xmlns="http://www.w3.org/2000/svg" viewBox="0 0 256 256" width="100%" height="100%">
  <defs>
    <linearGradient id="tr-grad1" x1="0%" y1="0%" x2="100%" y2="100%">
      <stop offset="0%" stop-color="#0EA5E9" />
      <stop offset="100%" stop-color="#2563EB" />
    </linearGradient>
    <linearGradient id="tr-grad2" x1="100%" y1="0%" x2="0%" y2="100%">
      <stop offset="0%" stop-color="#7DD3FC" />
      <stop offset="100%" stop-color="#93C5FD" />
    </linearGradient>
    <filter id="tr-shadow" x="-10%" y="-10%" width="120%" height="120%">
      <feDropShadow dx="0" dy="8" stdDeviation="12" flood-color="#000" flood-opacity="0.25" />
    </filter>
  </defs>

  <path d="M 128 0 c 52.4677 0 78.7015 0 97.2975 13.0211 a 72.0000 72.0000 0 0 1 17.6814 17.6814 c 13.0211 18.5960 13.0211 44.8298 13.0211 97.2975 L 256 128 c 0 52.4677 0 78.7015 -13.0211 97.2975 a 72.0000 72.0000 0 0 1 -17.6814 17.6814 c -18.5960 13.0211 -44.8298 13.0211 -97.2975 13.0211 L 128 256 c -52.4677 0 -78.7015 0 -97.2975 -13.0211 a 72.0000 72.0000 0 0 1 -17.6814 -17.6814 c -13.0211 -18.5960 -13.0211 -44.8298 -13.0211 -97.2975 L 0 128 c 0 -52.4677 0 -78.7015 13.0211 -97.2975 a 72.0000 72.0000 0 0 1 17.6814 -17.6814 c 18.5960 -13.0211 44.8298 -13.0211 97.2975 -13.0211 Z" fill="url(#tr-grad1)" filter="url(#tr-shadow)"/>

  <path d="M72 88 h112 M128 88 v20 M96 168 h64" fill="none" stroke="url(#tr-grad2)" stroke-width="14" stroke-linecap="round"/>
  <path d="M98 108 L78 168 M158 108 L178 168 M108 148 h40" fill="none" stroke="#fff" stroke-width="12" stroke-linecap="round" stroke-linejoin="round"/>
</svg>
